<?xml version="1.0" encoding="utf-8"?>
<!-- Generator: Adobe Illustrator 16.0.4, SVG Export Plug-In . SVG Version: 6.00 Build 0)  -->
<!DOCTYPE svg PUBLIC "-//W3C//DTD SVG 1.1//EN" "http://www.w3.org/Graphics/SVG/1.1/DTD/svg11.dtd">
<svg version="1.1" id=":mom-face:" xmlns="http://www.w3.org/2000/svg" xmlns:xlink="http://www.w3.org/1999/xlink" x="0px" y="0px"
	 width="22px" height="20px" viewBox="0 0 22 20" style="enable-background:new 0 0 22 20;" xml:space="preserve">
<path id="back_hair" style="fill:#705C3D;" d="M21.291,8.832h-13H6.709h-6c0,0,0,0.636,0.1,1.172
	c0.088,0.471,0.466,1.595,0.466,2.725c0,1.003-0.165,1.95-0.452,2.803h5.887h1.582h12.887c-0.287-0.853-0.452-1.8-0.452-2.803
	c0-1.13,0.378-2.254,0.466-2.725C21.291,9.468,21.291,8.832,21.291,8.832z"/>
<path id="yellow_head_1_" style="fill:#F7B23F;" d="M11,1C5.444,1,1,4.375,1,10c0,5.625,4.444,9,10,9c5.555,0,10-3.375,10-9
	C21,4.375,16.555,1,11,1z"/>
<g id="mouith">
</g>
<g id="sad_eyes">
</g>
<g id="Layer_5">
	<g>
		<path style="fill:#231F20;" d="M8.43,9.431c0.506-0.505,0.679-1.2,0.499-1.765L6.053,7.63c-0.431,0.655-0.42,1.477,0.08,1.977
			C6.718,10.193,7.749,10.114,8.43,9.431z"/>
		<path style="fill:#231F20;" d="M13.048,14.385c-0.15-0.104-0.267-0.247-0.585-0.429c-0.29-0.184-0.63-0.388-0.997-0.521
			c-0.182-0.079-0.369-0.16-0.579-0.205c-0.22-0.052-0.378-0.115-0.653-0.153c-0.188-0.02-0.376-0.038-0.561-0.057
			c-0.188-0.016-0.421,0.003-0.619,0.005c-0.415-0.011-0.769,0.101-1.08,0.155c-0.31,0.055-0.558,0.212-0.733,0.273
			c-0.173,0.077-0.271,0.121-0.271,0.121c-0.212,0.095-0.325,0.334-0.255,0.562c0.075,0.245,0.335,0.383,0.581,0.307l0.125-0.038
			c0,0,0.077-0.024,0.212-0.065c0.141-0.028,0.308-0.135,0.561-0.152c0.249-0.015,0.541-0.084,0.837-0.042
			c0.155,0.015,0.291,0.002,0.47,0.033c0.183,0.035,0.368,0.071,0.553,0.107c0.097,0.022,0.292,0.105,0.429,0.152
			c0.153,0.044,0.294,0.124,0.43,0.2c0.29,0.137,0.499,0.302,0.68,0.433c0.177,0.098,0.367,0.331,0.48,0.424
			c0.119,0.114,0.188,0.18,0.188,0.18c0.017,0.016,0.037,0.034,0.055,0.048c0.324,0.259,0.797,0.205,1.056-0.12
			c0.258-0.324,0.204-0.797-0.12-1.055C13.251,14.547,13.177,14.488,13.048,14.385z"/>
		<path style="fill:#231F20;" d="M15.451,7.108l-2.416,1.314c0.066,0.358,0.24,0.715,0.533,1.008
			c0.684,0.683,1.713,0.763,2.299,0.177s0.506-1.615-0.178-2.298C15.614,7.234,15.533,7.169,15.451,7.108z"/>
	</g>
</g>
<path id="hair" style="fill:#705C3D;" d="M11,1.519c4.939,0,9.062,3.482,10.058,8.124C21.198,9.468,21.291,9.248,21.291,9
	c0-5.625-4.574-9-10.291-9C5.282,0,0.708,3.375,0.708,9c0,0.248,0.093,0.467,0.233,0.642C1.938,5,6.06,1.519,11,1.519z"/>
<g id="bangs">
	
		<ellipse transform="matrix(0.6383 0.7698 -0.7698 0.6383 5.4036 -2.3907)" style="fill:#705C3D;" cx="5.246" cy="4.554" rx="2.563" ry="4.25"/>
	
		<ellipse transform="matrix(-0.3018 0.9534 -0.9534 -0.3018 21.3642 -7.698)" style="fill:#705C3D;" cx="13.501" cy="3.974" rx="2.563" ry="5.617"/>
</g>
<path id="bow" style="fill:#82C7DE;" d="M11,3.578c5.099,0,9.304,2.792,10.007,6.422c0.066-0.351,0.114-0.706,0.114-1.07
	c0-4.138-4.532-7.492-10.121-7.492c-5.59,0-10.121,3.354-10.121,7.492c0,0.364,0.048,0.72,0.114,1.07
	C1.697,6.371,5.902,3.578,11,3.578z"/>
</svg>
